<svg id="Layer_1" data-name="Layer 1" xmlns="http://www.w3.org/2000/svg" viewBox="0 0 474.54 399.1"><defs><style>.cls-1{fill:#ba88a1;}.cls-2{fill:#231f20;}.cls-3{fill:#f3845b;}.cls-4{fill:none;stroke:#231f20;stroke-linecap:round;stroke-miterlimit:10;stroke-width:14.2px;}</style></defs><title>anvil-trailing-right</title><path class="cls-1" d="M185.61,55.18H234a56.23,56.23,0,0,1,28.79,7.92,57.32,57.32,0,0,1,22.47,24.61,56.72,56.72,0,0,1,5.46,24.19h0v49.55H230.81a25.63,25.63,0,0,1-25.55-25.55v-4.71H193a25.63,25.63,0,0,1-25.55-25.55v-4.69H155.15a25.63,25.63,0,0,1-25.6-25.58V55.18h56.06Z" transform="translate(0 0.05)"/><path class="cls-2" d="M297.26,168H230.81a32.23,32.23,0,0,1-32-30.26H193a32.23,32.23,0,0,1-32-30.24h-5.83A32.2,32.2,0,0,1,123,75.38V48.67H234a62.76,62.76,0,0,1,32.1,8.84,63.29,63.29,0,0,1,31.11,54.38V168Zm-92-43.28h6.51V135.9a19.16,19.16,0,0,0,19.06,19h53.41v-43A50.27,50.27,0,0,0,259.5,68.7a49.75,49.75,0,0,0-25.45-7h-98V75.37a19.15,19.15,0,0,0,19.1,19.07h18.78v11.2a19.16,19.16,0,0,0,19.06,19h12.26Z" transform="translate(0 0.05)"/><path class="cls-3" d="M446.4,177.43h0c-8.57,37.47-42.25,65.65-82.22,65.65H307.87V177.43H446.4Z" transform="translate(0 0.05)"/><path class="cls-2" d="M364.18,249.59H301.36V170.92H454.57l-1.82,8A91.17,91.17,0,0,1,364.18,249.59Zm-49.8-13h49.8c33.16,0,62.89-21.69,73.59-52.63H314.38v52.63Z" transform="translate(0 0.05)"/><path class="cls-3" d="M73.42,158.68H352.68v84.4H157.78a84.61,84.61,0,0,1-84.36-84.36h0v0Z" transform="translate(0 0.05)"/><path class="cls-2" d="M359.19,249.59H157.78a91.34,91.34,0,0,1-90.87-90.85l0-6.53,6.53,0H359.19v97.42Zm-279-84.4a78.31,78.31,0,0,0,77.58,71.38H346.17V165.19h-266Z" transform="translate(0 0.05)"/><path class="cls-2" d="M301.61,193.32H279.73a6.51,6.51,0,1,1,0-13h21.88A6.51,6.51,0,0,1,301.61,193.32Z" transform="translate(0 0.05)"/><path class="cls-2" d="M323.16,193.32h-2.08a6.51,6.51,0,1,1,0-13h2.08A6.51,6.51,0,1,1,323.16,193.32Z" transform="translate(0 0.05)"/><path class="cls-2" d="M139.42,193.32H101.9a6.51,6.51,0,0,1,0-13h37.52A6.51,6.51,0,1,1,139.42,193.32Z" transform="translate(0 0.05)"/><path class="cls-1" d="M108.25,23.1h70.3a81.68,81.68,0,0,1,41.82,11.5,83.26,83.26,0,0,1,32.68,35.75A82.4,82.4,0,0,1,261,105.49h0v84.76s0.21,1.09-.26,1.18-0.92-.45-1.6-1.6c-2-3.45-5.73-11.63-20.58-12.34H173.92a37.23,37.23,0,0,1-37.12-37.12v-6.84H119A37.23,37.23,0,0,1,81.84,96.41V89.57L64,79.57c-20.48-.06-37.06-6.64-37.12-27.12V23.1h81.37Z" transform="translate(0 0.05)"/><path class="cls-2" d="M194.28,140H136.79a6.51,6.51,0,1,1,0-13h57.49A6.51,6.51,0,0,1,194.28,140Z" transform="translate(0 0.05)"/><path class="cls-1" d="M174.17,44.95a60.55,60.55,0,0,1,31,8.52A61.72,61.72,0,0,1,229.37,80a61.08,61.08,0,0,1,5.88,26h0v53" transform="translate(0 0.05)"/><path class="cls-2" d="M235.25,165.46a6.51,6.51,0,0,1-6.51-6.51V106a54.63,54.63,0,0,0-26.89-46.88,54.07,54.07,0,0,0-27.65-7.61h0a6.51,6.51,0,0,1,0-13h0a67.08,67.08,0,0,1,34.3,9.44,67.64,67.64,0,0,1,33.26,58.06v53A6.51,6.51,0,0,1,235.25,165.46Z" transform="translate(0 0.05)"/><path class="cls-1" d="M181.19,42.08H234a61.32,61.32,0,0,1,31.4,8.63,62.51,62.51,0,0,1,24.5,26.84,61.86,61.86,0,0,1,6,26.38h0v54H230.49a28,28,0,0,1-27.87-27.87v-5.13H189.23a28,28,0,0,1-27.87-27.87V91.95H148A28,28,0,0,1,120.1,64.08v-22h61.09Z" transform="translate(0 0.05)"/><path class="cls-2" d="M303,165.05H230.49a35.23,35.23,0,0,1-34.91-33h-6.35a35.23,35.23,0,0,1-34.91-33H148a35.22,35.22,0,0,1-35-34.94V35H234a68.45,68.45,0,0,1,35,9.63,69.24,69.24,0,0,1,34,59.3v61.14Zm-100.38-47.2h7.1v12.23a21,21,0,0,0,20.8,20.77H288.8V103.93a55,55,0,0,0-27-47.12A54.26,54.26,0,0,0,234,49.18H127.2v14.9A21,21,0,0,0,148,84.85h20.46V97.08a21,21,0,0,0,20.8,20.77h13.36Z" transform="translate(0 0.05)"/><path class="cls-3" d="M465.63,175.43h0C456.28,216.29,419.55,247,376,247H314.55v-71.6H465.63Z" transform="translate(0 0.05)"/><path class="cls-2" d="M376,254.13H307.45v-85.8H474.54l-2,8.68A99.44,99.44,0,0,1,376,254.13Zm-54.31-14.2H376c36.16,0,68.58-23.66,80.26-57.4H321.65v57.4Z" transform="translate(0 0.05)"/><path class="cls-3" d="M48.82,154.95H353.41V247H140.83c-50.61,0-92-41.41-92-92h0v-0.06Z" transform="translate(0 0.05)"/><path class="cls-2" d="M360.51,254.11H140.83a99.22,99.22,0,0,1-99.1-98.48V147.9l7.09,0H360.51V254.11ZM56.22,162.05a85,85,0,0,0,84.61,77.86H346.31V162.05H56.22Z" transform="translate(0 0.05)"/><path class="cls-2" d="M307.72,192.76H283.85a7.1,7.1,0,0,1,0-14.2h23.87A7.1,7.1,0,0,1,307.72,192.76Z" transform="translate(0 0.05)"/><path class="cls-2" d="M331.22,192.76h-2.28a7.1,7.1,0,0,1,0-14.2h2.28A7.1,7.1,0,0,1,331.22,192.76Z" transform="translate(0 0.05)"/><path class="cls-2" d="M130.81,192.76H89.89a7.1,7.1,0,1,1,0-14.2h40.92A7.1,7.1,0,0,1,130.81,192.76Z" transform="translate(0 0.05)"/><path class="cls-1" d="M96.82,7.1h76.73a89.09,89.09,0,0,1,45.61,12.54,90.82,90.82,0,0,1,35.6,39,89.87,89.87,0,0,1,8.64,38.31h0v92.44s0.23,1.19-.29,1.28-1-.49-1.75-1.74c-2.23-3.76-6.25-12.69-22.45-13.46H168.44a40.61,40.61,0,0,1-40.49-40.52v-7.46H108.5A40.61,40.61,0,0,1,68,87V79.54H48.55A40.61,40.61,0,0,1,8.06,39.05v-32H96.81v0Z" transform="translate(0 0.05)"/><path class="cls-2" d="M262.9,197.79c-3,0-5.56-1.75-7.63-5.21l-0.53-.92c-2.06-3.6-4.88-8.52-16-9.09h-70.3A47.82,47.82,0,0,1,120.85,135v-0.38H108.5A47.83,47.83,0,0,1,60.91,87V86.64H48.55A47.83,47.83,0,0,1,1,39.07V-0.05h101.7V0h70.91a96.22,96.22,0,0,1,49.2,13.54,97,97,0,0,1,47.71,83.4v92a8.36,8.36,0,0,1-1.34,5.64,7.37,7.37,0,0,1-4.84,3.1A8.29,8.29,0,0,1,262.9,197.79Zm-135-77.4h7.1V135a33.58,33.58,0,0,0,33.41,33.42h70.79c7.49,0.36,13,2.23,17.05,4.66V97a82.84,82.84,0,0,0-40.77-71.21A82,82,0,0,0,173.58,14.2H91V14.15H15.16V39A33.58,33.58,0,0,0,48.57,72.44H75.11V87a33.59,33.59,0,0,0,33.41,33.39H128Z" transform="translate(0 0.05)"/><path class="cls-2" d="M190.65,134.58H127.94a7.1,7.1,0,0,1,0-14.2h62.71A7.1,7.1,0,1,1,190.65,134.58Z" transform="translate(0 0.05)"/><path class="cls-1" d="M168.72,30.88a66,66,0,0,1,33.81,9.3,67.32,67.32,0,0,1,26.39,28.9,66.62,66.62,0,0,1,6.41,28.41h0v57.79" transform="translate(0 0.05)"/><path class="cls-2" d="M235.33,162.38a7.1,7.1,0,0,1-7.1-7.1V97.49A59.57,59.57,0,0,0,198.9,46.29,58.93,58.93,0,0,0,168.75,38h0a7.1,7.1,0,0,1,0-14.2h0a73.12,73.12,0,0,1,37.41,10.3,73.76,73.76,0,0,1,36.27,63.4v57.8A7.1,7.1,0,0,1,235.33,162.38Z" transform="translate(0 0.05)"/><path class="cls-3" d="M161.44,339.15a5.35,5.35,0,0,1,2.87-4.74c3.4-1.78,8.9-4.19,11.37-5.24,14-5.92,35.18-18.63,35.18-41.22S195.16,247,175.8,247H351.09C331.73,247,316,265.36,316,288s21.17,35.3,35.18,41.22c2.47,1,8,3.46,11.37,5.24a5.35,5.35,0,0,1,2.87,4.74v47.43a5.37,5.37,0,0,1-5.37,5.37H166.76a5.37,5.37,0,0,1-5.37-5.37v-16.8Z" transform="translate(0 0.05)"/><path class="cls-2" d="M360.08,399H166.76a12.48,12.48,0,0,1-12.47-12.47l0-47.43a12.42,12.42,0,0,1,6.68-11c4.27-2.23,11.12-5.16,11.88-5.48,11.53-4.88,30.86-15.86,30.86-34.69,0-18.64-12.54-33.81-28-33.81v-14.2H351.09v14.2c-15.42,0-28,15.17-28,33.81,0,18.81,19.27,29.78,30.8,34.66,2.76,1.12,8.42,3.65,12,5.52a12.4,12.4,0,0,1,6.65,11v47.43A12.48,12.48,0,0,1,360.08,399Zm-191.59-14.2H358.35V340.22c-3.08-1.56-7.59-3.57-9.81-4.47l-0.1,0C323,324.94,308.93,308,308.93,288a51.41,51.41,0,0,1,12.25-33.81H205.7A51.41,51.41,0,0,1,218,288c0,20-14,37-39.51,47.76-2.33,1-6.8,3-9.91,4.51ZM359.28,340.7h0Z" transform="translate(0 0.05)"/><rect class="cls-2" x="161.42" y="332.1" width="204.03" height="14.2"/><line class="cls-4" x1="35.01" y1="358.22" x2="69.77" y2="358.22"/><line class="cls-4" x1="7.1" y1="358.22" x2="7.1" y2="358.22"/><line class="cls-4" x1="64.09" y1="323" x2="98.98" y2="323"/><line class="cls-4" x1="11.36" y1="291.78" x2="58.65" y2="291.78"/></svg>