<svg id="Layer_1" data-name="Layer 1" xmlns="http://www.w3.org/2000/svg" viewBox="0 0 177.25 63.5"><defs><style>.cls-1{fill:#f3845b;}.cls-2{fill:#231f20;}.cls-3{fill:#c5da7a;}</style></defs><title>carrot</title><path class="cls-1" d="M170.23,31.8a1.2,1.2,0,0,0-1-1.26L77.87,7.06a1.3,1.3,0,0,0-1.62,1.26l0,46.86a1.3,1.3,0,0,0,1.62,1.26l91.4-23.38A1.2,1.2,0,0,0,170.23,31.8Z"/><path class="cls-2" d="M69.21,55.17l0-46.86A8.32,8.32,0,0,1,79.62.27L171,23.74a8.21,8.21,0,0,1,6.25,8.06h0A8.21,8.21,0,0,1,171,39.85h0L79.59,63.24A8.32,8.32,0,0,1,69.21,55.17Zm101-23.38a1.2,1.2,0,0,0-1-1.26L77.87,7.06a1.3,1.3,0,0,0-1.62,1.26l0,46.86a1.3,1.3,0,0,0,1.62,1.26l91.4-23.38A1.2,1.2,0,0,0,170.23,31.8Z"/><path class="cls-2" d="M0,44.87V28.2l75.71,0V44.9Zm7-9.64v2.63l61.68,0V35.26Z"/><path class="cls-2" d="M28.58,35.24v-16l46.7,0v16Zm7-9v2l32.66,0v-2Z"/><path class="cls-2" d="M95.44,52V35.36a3.51,3.51,0,1,1,7,0V52A3.51,3.51,0,0,1,95.44,52Z"/><path class="cls-2" d="M122.43,28.06V17.47a3.51,3.51,0,1,1,7,0V28.06A3.51,3.51,0,1,1,122.43,28.06Z"/><path class="cls-2" d="M107,52V41.41a3.51,3.51,0,1,1,7,0V52A3.51,3.51,0,1,1,107,52Z"/><path class="cls-3" d="M7,35.23v2.63l61.68,0V35.26Z"/><path class="cls-3" d="M35.6,26.23v2l32.66,0v-2Z"/></svg>