<svg id="Layer_1" data-name="Layer 1" xmlns="http://www.w3.org/2000/svg" viewBox="0 0 136.17 51.67"><defs><style>.cls-1,.cls-3,.cls-4{fill:#fff;stroke:#231f20;stroke-miterlimit:10;}.cls-1{stroke-width:2.37px;}.cls-2{fill:#231f20;}.cls-3,.cls-4{stroke-linecap:round;}.cls-3{stroke-width:2.38px;}.cls-4{stroke-width:2.7px;}</style></defs><title>logo</title><rect class="cls-1" x="1.19" y="1.19" width="133.8" height="49.29"/><path class="cls-2" d="M20.91,32.32A0.88,0.88,0,0,1,20,31.44V22.53a0.85,0.85,0,0,1,.26-0.63,0.84,0.84,0,0,1,.62-0.25h2.26a5.32,5.32,0,0,1,3.77,9.08,5.14,5.14,0,0,1-3.77,1.56l-2.24,0h0Zm0.89-1.77,1.36,0a3.56,3.56,0,0,0,0-7.12H21.79v7.14Z"/><path class="cls-2" d="M40.72,24.73a2.85,2.85,0,0,1-.61,1.78,3.2,3.2,0,0,1-1.55,1.12l1.69,3.43a0.89,0.89,0,0,1-.4,1.17,0.89,0.89,0,0,1-.39.09,0.81,0.81,0,0,1-.78-0.49l-2-4H35.2v3.55a0.88,0.88,0,0,1-.88.87,0.87,0.87,0,0,1-.87-0.87V22.5a0.88,0.88,0,0,1,.87-0.88H37.4a3.3,3.3,0,0,1,2.35.91A2.89,2.89,0,0,1,40.72,24.73Zm-3.26,1.35a1.68,1.68,0,0,0,1.07-.41,1.23,1.23,0,0,0,0-1.9,1.65,1.65,0,0,0-1.11-.4H35.2v2.7h2.26Z"/><path class="cls-2" d="M51.82,30.56a0.83,0.83,0,0,1,.62.26,0.85,0.85,0,0,1,.26.63,0.89,0.89,0,0,1-.88.88H46.42a0.89,0.89,0,0,1-.88-0.88V22.51a0.84,0.84,0,0,1,.26-0.63,0.83,0.83,0,0,1,.62-0.26h5.39a0.85,0.85,0,0,1,.63.26,0.87,0.87,0,0,1,.25.63,0.89,0.89,0,0,1-.88.88H47.31v2.7h3.25a0.87,0.87,0,0,1,.63.25,0.88,0.88,0,0,1,0,1.25,0.86,0.86,0,0,1-.62.25H47.31v2.7h4.51Z"/><path class="cls-2" d="M57.11,32.25a0.88,0.88,0,0,1-.48-1.15l0.95-2.27h0l2.74-6.61,0-.07v0l0,0,0,0,0,0,0,0,0,0,0,0,0,0,0,0,0,0,0,0,0,0,0.05,0h0l0,0h0.05l0.05,0H61.3l0.05,0h0l0.16,0.07,0,0,0,0,0,0,0,0,0,0,0,0,0,0,0,0,0,0,0,0,0,0,0,0,0,0.07,2.74,6.61h0l0.95,2.27a0.88,0.88,0,0,1,0,.67,0.87,0.87,0,0,1-.48.48,0.89,0.89,0,0,1-.33.07A0.81,0.81,0,0,1,64,31.78L63.29,30H59l-0.71,1.73a0.81,0.81,0,0,1-.81.54H57.28Zm5.45-4-1.44-3.46L59.7,28.3h2.87Z"/><path class="cls-2" d="M80,21.64a0.86,0.86,0,0,1,.46.32,0.84,0.84,0,0,1,.18.53v9a0.84,0.84,0,0,1-.25.62,0.88,0.88,0,0,1-1.25,0,0.84,0.84,0,0,1-.25-0.62V25.65l-2.78,4.59h0l0,0.05,0,0,0,0,0,0,0,0,0,0,0,0-0.05,0h0l-0.05,0H75.68a0.8,0.8,0,0,1-.36.07h0l-0.19,0H75l-0.05,0h0l-0.06,0h0l-0.05,0h0l0,0,0,0,0,0,0,0,0,0,0-.05h0l-2.77-4.59v5.79a0.83,0.83,0,0,1-.26.62,0.85,0.85,0,0,1-.62.26,0.89,0.89,0,0,1-.88-0.88v-9A0.84,0.84,0,0,1,70.23,22a0.87,0.87,0,0,1,.47-0.32,0.88,0.88,0,0,1,1,.4l3.66,6.05L79,22a0.85,0.85,0,0,1,.42-0.37l0.28-.1Z"/><path class="cls-2" d="M86.53,21.64a0.89,0.89,0,0,1,.88.88v8h3.94a0.85,0.85,0,0,1,.63.26,0.88,0.88,0,0,1,0,1.24,0.85,0.85,0,0,1-.63.26H86.53a0.89,0.89,0,0,1-.88-0.88V22.52A0.89,0.89,0,0,1,86.53,21.64Z"/><path class="cls-2" d="M95.81,32.25a0.88,0.88,0,0,1-.48-1.15l0.95-2.27h0L99,22.21l0-.07v0l0,0,0,0,0,0,0,0,0,0,0,0,0,0,0,0,0,0,0,0,0,0,0.05,0h0l0,0h0.05l0.05,0H100l0.05,0h0l0.16,0.07,0,0,0,0,0,0,0,0,0,0,0,0,0,0,0,0,0,0,0,0,0,0,0,0,0,0.07,2.74,6.61h0l0.95,2.27a0.88,0.88,0,0,1-.48,1.15,0.89,0.89,0,0,1-.33.07,0.81,0.81,0,0,1-.81-0.54L102,30H97.67L97,31.78a0.81,0.81,0,0,1-.81.54H96Zm5.45-4-1.44-3.46L98.39,28.3h2.87Z"/><path class="cls-2" d="M109.12,32.32a0.89,0.89,0,0,1-.88-0.88v-8.9a0.86,0.86,0,0,1,.25-0.62,0.88,0.88,0,0,1,.62-0.26h3.13a3.36,3.36,0,0,1,2.37.89,2.87,2.87,0,0,1,1,2.19,3,3,0,0,1-.92,2.17,2.86,2.86,0,0,1,1.1,2.3,2.91,2.91,0,0,1-1,2.2,3.31,3.31,0,0,1-2.35.92h-3.3Zm0.88-6.2h2.25a1.62,1.62,0,0,0,1.1-.41,1.29,1.29,0,0,0,.46-1,1.18,1.18,0,0,0-.45-0.94,1.65,1.65,0,0,0-1.11-.39l-2.25,0v2.7Zm0,4.44h2.42a1.64,1.64,0,0,0,1.12-.4,1.22,1.22,0,0,0,.46-1,1.17,1.17,0,0,0-.46-0.93,1.65,1.65,0,0,0-1.11-.39H110v2.68Z"/><line class="cls-3" x1="113.86" y1="43.44" x2="25.92" y2="43.44"/><line class="cls-3" x1="120.9" y1="8.23" x2="32.96" y2="8.23"/><line class="cls-3" x1="127.94" y1="28.43" x2="127.94" y2="43.44"/><line class="cls-3" x1="121.51" y1="43.44" x2="127.94" y2="43.44"/><line class="cls-4" x1="117.22" y1="43.44" x2="117.22" y2="43.44"/><line class="cls-3" x1="23.24" y1="8.23" x2="8.23" y2="8.23"/><line class="cls-3" x1="8.23" y1="14.66" x2="8.23" y2="8.23"/><line class="cls-4" x1="8.23" y1="18.95" x2="8.23" y2="18.95"/><line class="cls-3" x1="8.23" y1="28.43" x2="8.23" y2="43.44"/><line class="cls-3" x1="14.66" y1="43.44" x2="8.23" y2="43.44"/><line class="cls-4" x1="18.95" y1="43.44" x2="18.95" y2="43.44"/><line class="cls-3" x1="127.63" y1="13.66" x2="127.63" y2="20.09"/><line class="cls-4" x1="127.63" y1="9.37" x2="127.63" y2="9.37"/></svg>