<svg id="Layer_1" data-name="Layer 1" xmlns="http://www.w3.org/2000/svg" viewBox="0 0 297.47 661.25"><defs><style>.cls-1{fill:#e4f4f2;stroke:#231f20;stroke-linecap:round;stroke-miterlimit:10;stroke-width:17.25px;}</style></defs><title>Untitled-2</title><path class="cls-1" d="M353.86,377.55c-18.19,2.89-35.57,11.28-55.15,11.28s-37-8.38-55.15-11.28c-47.23-7.51-85,44.27-85,93a92.89,92.89,0,0,0,12.51,46.7c0.75,1.29,5.82,9.18,11,17.15a73.9,73.9,0,0,1,11.79,39.16c0.08,6.48.16,12.3,0.22,13.75C198.49,697.92,224.87,718,242.92,718h0c22.49-1.4,16.53-45,19.46-72.66,5.23-49.44,19.46-70,36.33-69.69,16.87-.35,31.09,20.25,36.33,69.69C338,673,332,716.6,354.49,718h0c18,0,44.44-20.08,48.85-130.68,0.06-1.45.14-7.27,0.22-13.75a73.9,73.9,0,0,1,11.79-39.16c5.14-8,10.21-15.86,11-17.15a92.89,92.89,0,0,0,12.51-46.7C438.82,421.82,401.08,370,353.86,377.55Z" transform="translate(-149.97 -65.38)"/><path class="cls-1" d="M254.08,675.26" transform="translate(-149.97 -65.38)"/><path class="cls-1" d="M241,416.68c-23.1,0-43.28,27-43.28,48.56,0,21.22,7.35,32,12.15,40.42" transform="translate(-149.97 -65.38)"/><line class="cls-1" x1="143.68" y1="96.15" x2="143.68" y2="241.88"/><line class="cls-1" x1="201.89" y1="8.62" x2="201.89" y2="154.35"/></svg>